<?xml version="1.0" encoding="utf-8"?>
<!-- Generator: Adobe Illustrator 24.0.1, SVG Export Plug-In . SVG Version: 6.00 Build 0)  -->
<svg version="1.1"
	 id="svg2" xmlns:cc="http://creativecommons.org/ns#" xmlns:dc="http://purl.org/dc/elements/1.1/" xmlns:rdf="http://www.w3.org/1999/02/22-rdf-syntax-ns#" xmlns:svg="http://www.w3.org/2000/svg"
	 xmlns="http://www.w3.org/2000/svg" xmlns:xlink="http://www.w3.org/1999/xlink" x="0px" y="0px" viewBox="0 0 915 580"
	 style="enable-background:new 0 0 915 580;" xml:space="preserve">
<style type="text/css">
	.st0{fill:none;stroke:#000000;stroke-width:2.6667;}
	.st1{fill:none;stroke:#000000;stroke-width:6;}
	.st2{fill:none;stroke:#000000;}
</style>
<path id="path926_2_" class="st0" d="M1444,17.9"/>
<path id="path928_1_" class="st0" d="M1444,562.1"/>
<path id="path1873" class="st1" d="M252.7,390.7c0-139.7,115.3-252.9,255-252.9"/>
<path id="rect2806" class="st1" d="M505.6,390.7V135.9"/>
<path id="path922_2_" class="st1" d="M252.7,137.7"/>
<path id="path922_1_" class="st1" d="M252.7,390.7"/>
<path id="path1875_2_" class="st1" d="M662.3,137.4"/>
<path id="path1875_1_" class="st1" d="M506,293.7"/>
<path id="path928_2_" class="st1" d="M505.8,390.2"/>
<g>
	<path id="path2762" class="st1" d="M568.3,390.2c53.3,0,96.6-43.2,96.6-96.6"/>
	<path id="path2764" class="st1" d="M508.6,330.5c0,33,26.8,59.7,59.7,59.7"/>
	<path id="path2766" class="st1" d="M508.6,330.5c0-20.4,16.5-36.8,36.8-36.8"/>
	<path id="path2768" class="st1" d="M568.3,316.4c0-12.6-10.3-22.8-22.8-22.8l0,0"/>
	<path id="path2770" class="st1" d="M568.3,316.4c0,7.7-6.3,14-14,14l0,0"/>
	<path id="path2772" class="st1" d="M545.5,321.7c0,4.8,4,8.8,8.8,8.8l0,0"/>
	<path id="path2774" class="st1" d="M545.5,321.7c0-3,2.4-5.3,5.3-5.3l0,0"/>
	<path id="path1028" class="st1" d="M554.2,320c0-2-1.5-3.5-3.5-3.5"/>
	<path id="path1030" class="st1" d="M554.2,320c0,1-0.8,1.8-1.8,1.8"/>
	<path id="path1034" class="st1" d="M550.7,320c0,1,0.8,1.8,1.8,1.8l0,0"/>
</g>
<path id="path926_1_" class="st1" d="M271.9,293.7H506"/>
<line class="st1" x1="664.9" y1="293.7" x2="541.1" y2="136.6"/>
<path id="rect2806_1_" class="st1" d="M667.9,391.7V136.9"/>
<line class="st2" x1="507.7" y1="135.3" x2="508.6" y2="135.3"/>
</svg>
